HIERARCHY
ROOT Hips
{
	OFFSET 0.000000 103.266502 0.000000
	CHANNELS 6 Xposition Yposition Zposition Xrotation Yrotation Zrotation 
	JOINT Spine
	{
		OFFSET -0.002400 12.777504 0.315300
		CHANNELS 3 Xrotation Yrotation Zrotation
		JOINT Spine1
		{
			OFFSET -0.002067 5.816869 0.032633
			CHANNELS 3 Xrotation Yrotation Zrotation
			JOINT Spine1_split
			{
				OFFSET -0.002067 5.816869 0.032633
				CHANNELS 3 Xrotation Yrotation Zrotation
				JOINT Spine2
				{
					OFFSET -0.002067 5.816869 0.032633
					CHANNELS 3 Xrotation Yrotation Zrotation
					JOINT Neck
					{
						OFFSET -0.003700 21.199493 -0.826900
						CHANNELS 3 Xrotation Yrotation Zrotation
						JOINT Head
						{
							OFFSET 0.000000 20.442200 4.834800
							CHANNELS 3 Xrotation Yrotation Zrotation
							JOINT HeadTop_End
							{
								OFFSET 0.000000 34.668396 4.968400
								CHANNELS 3 Xrotation Yrotation Zrotation
								End Site
								{
									OFFSET 0.000000 0.000000 0.000000
								}
							}
						}
					}
					JOINT LeftShoulder
					{
						OFFSET 3.288150 8.794197 -1.372250
						CHANNELS 3 Xrotation Yrotation Zrotation
						JOINT LeftShoulder_split
						{
							OFFSET 3.288150 8.794197 -1.372250
							CHANNELS 3 Xrotation Yrotation Zrotation
							JOINT LeftArm
							{
								OFFSET 11.953299 -2.279007 -0.146200
								CHANNELS 3 Xrotation Yrotation Zrotation
								JOINT LeftForeArm
								{
									OFFSET 18.448900 0.000000 0.000000
									CHANNELS 3 Xrotation Yrotation Zrotation
									JOINT LeftHand
									{
										OFFSET 29.527798 0.000000 0.000000
										CHANNELS 3 Xrotation Yrotation Zrotation
										JOINT LeftHandThumb1
										{
											OFFSET 10.739754 -2.369614 9.225399
											CHANNELS 3 Xrotation Yrotation Zrotation
											JOINT LeftHandThumb2
											{
												OFFSET 4.926170 -2.844131 2.844125
												CHANNELS 3 Xrotation Yrotation Zrotation
												JOINT LeftHandThumb3
												{
													OFFSET 4.614891 -2.664413 2.664409
													CHANNELS 3 Xrotation Yrotation Zrotation
													JOINT LeftHandThumb4
													{
														OFFSET 4.432465 -2.559082 2.559083
														CHANNELS 3 Xrotation Yrotation Zrotation
														End Site
														{
															OFFSET 0.000000 0.000000 0.000000
														}
													}
												}
											}
										}
										JOINT LeftHandIndex1
										{
											OFFSET 26.467674 0.187653 6.405298
											CHANNELS 3 Xrotation Yrotation Zrotation
											JOINT LeftHandIndex2
											{
												OFFSET 8.792900 0.000000 0.000000
												CHANNELS 3 Xrotation Yrotation Zrotation
												JOINT LeftHandIndex3
												{
													OFFSET 10.075203 0.000000 0.000000
													CHANNELS 3 Xrotation Yrotation Zrotation
													End Site
													{
														OFFSET 0.000000 0.000000 0.000000
													}
												}
											}
										}
										JOINT LeftHandMiddle1
										{
											OFFSET 25.764404 0.000000 0.000000
											CHANNELS 3 Xrotation Yrotation Zrotation
											JOINT LeftHandMiddle2
											{
												OFFSET 9.393974 0.000000 0.000000
												CHANNELS 3 Xrotation Yrotation Zrotation
												JOINT LeftHandMiddle3
												{
													OFFSET 10.771950 0.000000 0.000000
													CHANNELS 3 Xrotation Yrotation Zrotation
													End Site
													{
														OFFSET 0.000000 0.000000 0.000000
													}
												}
											}
										}
										JOINT LeftHandRing1
										{
											OFFSET 24.660927 0.144547 -6.225808
											CHANNELS 3 Xrotation Yrotation Zrotation
											JOINT LeftHandRing2
											{
												OFFSET 9.393799 0.000000 0.000000
												CHANNELS 3 Xrotation Yrotation Zrotation
												JOINT LeftHandRing3
												{
													OFFSET 9.928497 0.000000 0.000000
													CHANNELS 3 Xrotation Yrotation Zrotation
													End Site
													{
														OFFSET 0.000000 0.000000 0.000000
													}
												}
											}
										}
										JOINT LeftHandPinky1
										{
											OFFSET 23.655350 0.125290 -12.815412
											CHANNELS 3 Xrotation Yrotation Zrotation
											JOINT LeftHandPinky2
											{
												OFFSET 8.425102 0.000000 0.000000
												CHANNELS 3 Xrotation Yrotation Zrotation
												JOINT LeftHandPinky3
												{
													OFFSET 8.147003 0.000000 0.000000
													CHANNELS 3 Xrotation Yrotation Zrotation
													End Site
													{
														OFFSET 0.000000 0.000000 0.000000
													}
												}
											}
										}
									}
								}
							}
						}
					}
					JOINT RightShoulder
					{
						OFFSET -3.249400 8.794197 -1.372250
						CHANNELS 3 Xrotation Yrotation Zrotation
						JOINT RightShoulder_split
						{
							OFFSET -3.249400 8.794197 -1.372250
							CHANNELS 3 Xrotation Yrotation Zrotation
							JOINT RightArm
							{
								OFFSET -11.953299 -2.279007 -0.146200
								CHANNELS 3 Xrotation Yrotation Zrotation
								JOINT RightForeArm
								{
									OFFSET -18.448900 0.000000 0.000000
									CHANNELS 3 Xrotation Yrotation Zrotation
									JOINT RightHand
									{
										OFFSET -29.527802 0.000000 0.000000
										CHANNELS 3 Xrotation Yrotation Zrotation
										JOINT RightHandThumb1
										{
											OFFSET -10.739754 -2.369614 9.225399
											CHANNELS 3 Xrotation Yrotation Zrotation
											JOINT RightHandThumb2
											{
												OFFSET -4.926170 -2.844131 2.844125
												CHANNELS 3 Xrotation Yrotation Zrotation
												JOINT RightHandThumb3
												{
													OFFSET -4.614891 -2.664413 2.664409
													CHANNELS 3 Xrotation Yrotation Zrotation
													JOINT RightHandThumb4
													{
														OFFSET -4.432465 -2.559082 2.559083
														CHANNELS 3 Xrotation Yrotation Zrotation
														End Site
														{
															OFFSET 0.000000 0.000000 0.000000
														}
													}
												}
											}
										}
										JOINT RightHandIndex1
										{
											OFFSET -26.467674 0.187653 6.405298
											CHANNELS 3 Xrotation Yrotation Zrotation
											JOINT RightHandIndex2
											{
												OFFSET -8.792900 0.000000 0.000000
												CHANNELS 3 Xrotation Yrotation Zrotation
												JOINT RightHandIndex3
												{
													OFFSET -10.075203 0.000000 0.000000
													CHANNELS 3 Xrotation Yrotation Zrotation
													End Site
													{
														OFFSET 0.000000 0.000000 0.000000
													}
												}
											}
										}
										JOINT RightHandMiddle1
										{
											OFFSET -25.764404 0.000000 0.000000
											CHANNELS 3 Xrotation Yrotation Zrotation
											JOINT RightHandMiddle2
											{
												OFFSET -9.393974 0.000000 0.000000
												CHANNELS 3 Xrotation Yrotation Zrotation
												JOINT RightHandMiddle3
												{
													OFFSET -10.771950 0.000000 0.000000
													CHANNELS 3 Xrotation Yrotation Zrotation
													End Site
													{
														OFFSET 0.000000 0.000000 0.000000
													}
												}
											}
										}
										JOINT RightHandRing1
										{
											OFFSET -24.660927 0.144547 -6.225808
											CHANNELS 3 Xrotation Yrotation Zrotation
											JOINT RightHandRing2
											{
												OFFSET -9.393799 0.000000 0.000000
												CHANNELS 3 Xrotation Yrotation Zrotation
												JOINT RightHandRing3
												{
													OFFSET -9.928497 0.000000 0.000000
													CHANNELS 3 Xrotation Yrotation Zrotation
													End Site
													{
														OFFSET 0.000000 0.000000 0.000000
													}
												}
											}
										}
										JOINT RightHandPinky1
										{
											OFFSET -23.655350 0.125290 -12.815412
											CHANNELS 3 Xrotation Yrotation Zrotation
											JOINT RightHandPinky2
											{
												OFFSET -8.425102 0.000000 0.000000
												CHANNELS 3 Xrotation Yrotation Zrotation
												JOINT RightHandPinky3
												{
													OFFSET -8.147003 0.000000 0.000000
													CHANNELS 3 Xrotation Yrotation Zrotation
													End Site
													{
														OFFSET 0.000000 0.000000 0.000000
													}
												}
											}
										}
									}
								}
							}
						}
					}
				}
			}
		}
	}
	JOINT LeftUpLeg
	{
		OFFSET 11.394100 -6.187798 -0.413800
		CHANNELS 3 Xrotation Yrotation Zrotation
		JOINT LeftLeg
		{
			OFFSET 0.430247 -32.302673 3.732800
			CHANNELS 3 Xrotation Yrotation Zrotation
			JOINT LeftFoot
			{
				OFFSET -0.430247 -48.264931 -6.423300
				CHANNELS 3 Xrotation Yrotation Zrotation
				JOINT LeftToeBase
				{
					OFFSET 4.230900 -16.068199 23.438400
					CHANNELS 3 Xrotation Yrotation Zrotation
					JOINT LeftToe_End
					{
						OFFSET 4.510700 0.695400 19.974600
						CHANNELS 3 Xrotation Yrotation Zrotation
						End Site
						{
							OFFSET 0.000000 0.000000 0.000000
						}
					}
				}
			}
		}
	}
	JOINT RightUpLeg
	{
		OFFSET -11.333700 -6.187798 -0.413800
		CHANNELS 3 Xrotation Yrotation Zrotation
		JOINT RightLeg
		{
			OFFSET -0.430392 -32.302628 3.733000
			CHANNELS 3 Xrotation Yrotation Zrotation
			JOINT RightFoot
			{
				OFFSET 0.430392 -48.264973 -6.423500
				CHANNELS 3 Xrotation Yrotation Zrotation
				JOINT RightToeBase
				{
					OFFSET -4.230900 -16.068199 23.438400
					CHANNELS 3 Xrotation Yrotation Zrotation
					JOINT RightToe_End
					{
						OFFSET -4.510700 0.695400 19.974600
						CHANNELS 3 Xrotation Yrotation Zrotation
						End Site
						{
							OFFSET 0.000000 0.000000 0.000000
						}
					}
				}
			}
		}
	}
}
MOTION
Frames: 5
Frame Time: 0.016667
-0.010321 110.245056 -3.239021 -89.648473 0.350077 0.822554 1.064756 -1.172387 0.852804 -0.317554 -2.434543 0.230484 0.000000 0.000000 0.000000 -0.303406 -2.418346 0.331942 -10.007551 0.108424 -1.808070 8.693204 -2.170254 1.510696 -0.000000 -0.000000 -0.000000 0.422242 -0.102940 -3.997469 0.000000 0.000000 0.000000 35.266555 -28.376665 -54.536943 0.000438 -80.459608 0.000455 -13.956477 -3.099382 -10.083748 6.590533 -4.958657 16.122648 7.178842 21.567323 2.147322 -3.980788 36.507505 21.976002 -0.000003 0.000003 0.000002 0.659514 4.932350 -26.024465 0.169800 1.401618 -13.813550 0.000001 -0.000000 -0.000001 1.376920 6.461949 -24.994172 0.169881 1.401980 -13.817109 -0.000003 -0.000001 0.000000 2.098714 8.644301 -21.209674 0.169794 1.401618 -13.813550 0.000000 0.000000 0.000000 2.123424 10.735873 -14.817561 0.167500 1.392245 -13.719351 -0.000000 0.000001 0.000000 0.672257 1.791888 13.905689 0.000000 0.000000 0.000000 39.524416 30.882055 33.636346 -0.000201 101.353327 0.000192 -34.911996 -9.308813 11.148391 -13.115381 7.814919 -0.093428 7.918243 -27.751663 -3.100786 -2.785621 -37.960696 -21.297249 0.000006 0.000001 0.000001 2.082839 12.897798 37.347454 0.497043 -2.095302 26.687149 -0.000000 -0.000000 -0.000002 -4.321322 1.650213 38.533496 0.529962 -2.159507 27.573969 0.000000 -0.000000 0.000005 -1.394402 -1.262395 31.742006 0.254170 -1.518990 18.997020 0.000002 -0.000001 0.000000 0.189704 -3.422253 14.147213 0.162215 -1.219716 15.150961 0.000001 0.000000 0.000000 -5.945029 17.094174 19.426229 4.624768 7.592457 0.307314 29.945339 29.293944 -30.969406 -4.397696 0.000004 0.000009 0.000001 0.000001 -0.000000 -5.587817 -16.798939 -12.452432 3.807340 -7.591059 -7.584205 38.977011 -29.645842 30.172176 -9.126034 0.000025 -0.000016 -0.000000 -0.000000 0.000001 
-0.008912 110.244957 -3.235893 -89.647845 0.349922 0.820769 1.065039 -1.305662 0.854935 -0.267807 -2.803662 0.269861 0.000000 0.000000 0.000000 -0.275045 -2.540291 0.378853 -10.308413 0.108423 -1.848247 8.590539 -2.164040 1.438077 -0.000000 0.000000 0.000000 0.286858 1.338427 -4.208839 0.000000 0.000000 0.000000 35.597423 -28.973925 -53.870665 0.000047 -80.449854 0.000054 -14.006712 -2.990145 -10.115702 6.590534 -4.958656 16.122646 7.178840 21.567321 2.147323 -3.980788 36.507501 21.975999 -0.000000 0.000001 -0.000002 0.659513 4.932351 -26.024467 0.169803 1.401617 -13.813550 -0.000000 0.000002 -0.000000 1.376925 6.461949 -24.994174 0.169879 1.401981 -13.817112 -0.000002 0.000002 0.000001 2.098713 8.644298 -21.209675 0.169788 1.401614 -13.813546 0.000002 0.000001 0.000001 2.123425 10.735875 -14.817561 0.167503 1.392241 -13.719347 0.000002 -0.000002 -0.000001 0.632474 1.910002 13.900109 0.000000 0.000000 0.000000 39.216798 31.338455 32.961636 0.000183 101.514008 -0.000193 -32.241549 -5.778566 11.438759 -12.649675 7.487822 0.310925 7.918237 -27.751665 -3.100787 -2.801556 -37.397574 -21.178641 0.000003 0.000001 -0.000001 1.826891 12.388906 38.175669 0.531854 -2.163122 27.624073 0.000001 0.000000 0.000002 -4.275619 1.292267 39.774603 0.580794 -2.254085 28.893756 -0.000000 -0.000000 -0.000001 -1.400941 -1.500345 33.624318 0.307061 -1.664658 20.900889 -0.000000 -0.000000 -0.000002 0.245548 -3.624127 16.721703 0.221500 -1.420584 17.723391 -0.000002 -0.000000 -0.000000 -5.938047 17.069754 19.447823 4.699457 7.613751 0.289331 29.959768 29.289388 -30.935149 -4.437276 0.000001 -0.000021 0.000000 0.000001 -0.000000 -5.608871 -16.796830 -12.448823 3.833041 -7.594440 -7.600031 38.944837 -29.651798 30.172637 -9.100851 -0.000002 -0.000000 0.000001 0.000004 0.000000 
-0.010728 110.250656 -3.230888 -89.647011 0.348928 0.822415 1.071091 -1.490062 0.855241 -0.122009 -3.167864 0.318246 0.000000 0.000000 0.000000 -0.192749 -2.885992 0.467763 -10.438612 0.101447 -1.869203 8.494235 -2.149573 1.244427 -0.000000 0.000001 -0.000000 0.143308 2.780180 -4.408303 0.000000 0.000000 0.000000 35.798056 -29.342131 -53.528001 0.000622 -80.441146 0.000619 -13.903226 -3.035547 -10.126506 6.590534 -4.958658 16.122644 7.178849 21.567326 2.147320 -3.980791 36.507505 21.976002 0.000001 0.000000 0.000000 0.659514 4.932348 -26.024465 0.169802 1.401614 -13.813552 0.000000 0.000001 0.000000 1.376925 6.461949 -24.994174 0.169878 1.401983 -13.817108 -0.000002 0.000001 0.000000 2.098715 8.644299 -21.209675 0.169792 1.401617 -13.813548 0.000000 -0.000002 -0.000002 2.123426 10.735874 -14.817559 0.167502 1.392239 -13.719348 -0.000001 0.000000 0.000001 0.595531 2.019710 13.895002 0.000000 0.000000 0.000000 37.989434 32.092286 32.256327 0.000035 101.960060 -0.000045 -30.034264 -3.162346 11.679197 -12.147805 7.137447 0.751205 7.918243 -27.751665 -3.100788 -2.820214 -36.790503 -21.051505 -0.000001 -0.000001 -0.000001 1.566996 11.835566 39.062204 0.570624 -2.235587 28.634274 0.000001 -0.000000 -0.000004 -4.213789 0.910814 41.113473 0.638010 -2.354713 30.316758 0.000002 -0.000000 -0.000004 -1.397912 -1.756065 35.653977 0.369475 -1.819639 22.953764 0.000001 0.000000 -0.000003 0.315874 -3.838720 19.498129 0.295449 -1.633920 20.497210 -0.000000 0.000000 -0.000000 -5.935244 17.065284 19.454815 4.726889 7.622553 0.264770 30.010707 29.286113 -30.936259 -4.495515 -0.000005 0.000015 -0.000000 -0.000000 -0.000000 -5.630628 -16.792256 -12.428163 3.898151 -7.581624 -7.640664 38.832914 -29.693455 30.156446 -9.020924 0.000022 -0.000002 0.000000 0.000001 0.000000 
-0.019816 110.253502 -3.223129 -89.642087 0.330806 0.827936 1.018504 -1.610132 0.852490 -0.004332 -3.399447 0.363598 0.000000 0.000000 0.000000 -0.116509 -3.107312 0.517954 -10.409519 0.091391 -1.902495 8.391085 -2.126795 0.943352 -0.000000 -0.000000 -0.000000 -0.087597 3.411969 -4.598580 0.000000 0.000000 0.000000 36.070236 -29.254728 -53.441613 0.000379 -80.534098 0.000411 -13.803846 -3.053163 -10.111801 6.590534 -4.958654 16.122650 7.178846 21.567320 2.147320 -3.980786 36.507505 21.976004 -0.000003 0.000002 -0.000001 0.659514 4.932351 -26.024465 0.169804 1.401616 -13.813550 0.000001 0.000001 -0.000000 1.376921 6.461950 -24.994176 0.169882 1.401982 -13.817115 -0.000000 0.000003 0.000001 2.098717 8.644296 -21.209675 0.169791 1.401613 -13.813547 0.000002 -0.000001 0.000000 2.123424 10.735876 -14.817552 0.167500 1.392244 -13.719348 -0.000001 -0.000002 -0.000001 0.552936 2.146240 13.889200 0.000000 0.000000 0.000000 36.351254 32.916218 31.673073 0.000137 102.444607 -0.000101 -28.112845 -0.954745 11.594355 -11.615837 6.768542 1.222991 7.918248 -27.751668 -3.100788 -2.841642 -36.146802 -20.917502 0.000002 -0.000000 -0.000002 1.309540 11.243914 39.995300 0.613124 -2.311667 29.705514 0.000000 0.000000 -0.000002 -4.134202 0.511805 42.534255 0.701401 -2.459825 31.825908 -0.000001 -0.000000 0.000000 -1.383342 -2.025842 37.806675 0.441689 -1.981421 25.130911 -0.000000 -0.000000 0.000001 0.401762 -4.062267 22.443201 0.385041 -1.855943 23.439095 -0.000000 0.000000 -0.000000 -5.934091 17.058078 19.471297 4.765673 7.658653 0.236043 30.053478 29.282469 -30.940327 -4.542669 -0.000016 0.000013 0.000000 0.000001 -0.000000 -5.675859 -16.782473 -12.395474 4.003752 -7.559790 -7.701576 38.645955 -29.754490 30.130133 -8.894401 0.000001 -0.000012 0.000001 -0.000000 -0.000001 
-0.032453 110.258247 -3.216248 -89.634355 0.293079 0.838331 0.971034 -1.720280 0.837513 0.194116 -3.606527 0.416352 0.000000 0.000000 0.000000 0.025596 -3.299263 0.562685 -10.333479 0.079274 -1.949323 8.269078 -2.095620 0.548455 0.000000 -0.000000 -0.000000 -0.239442 3.890324 -4.805996 0.000000 0.000000 0.000000 36.148138 -29.060423 -53.421614 0.000210 -80.642350 0.000208 -13.636751 -3.113939 -10.092449 6.590534 -4.958660 16.122651 7.178845 21.567325 2.147322 -3.980785 36.507505 21.976002 -0.000002 0.000000 0.000000 0.659514 4.932346 -26.024464 0.169800 1.401616 -13.813550 -0.000002 0.000002 0.000001 1.376922 6.461949 -24.994177 0.169879 1.401983 -13.817110 -0.000002 0.000000 -0.000000 2.098713 8.644297 -21.209675 0.169790 1.401615 -13.813550 -0.000001 -0.000003 0.000000 2.123426 10.735871 -14.817561 0.167500 1.392244 -13.719349 -0.000002 0.000000 -0.000001 0.496193 2.314829 13.881619 0.000000 0.000000 0.000000 34.462495 33.833929 31.298160 0.000177 102.688301 -0.000177 -25.929077 1.097989 11.474230 -11.059811 6.385804 1.721689 7.918247 -27.751668 -3.100785 -2.865855 -35.473848 -20.778245 -0.000003 -0.000000 0.000000 1.060236 10.620370 40.963581 0.659077 -2.390349 30.825699 0.000000 -0.000000 -0.000001 -4.035789 0.101142 44.021143 0.770618 -2.567901 33.404031 0.000001 0.000000 -0.000000 -1.355713 -2.305869 40.058096 0.523719 -2.147512 27.407688 0.000000 0.000000 0.000001 0.503778 -4.290960 25.523638 0.490796 -2.082836 26.515734 0.000002 0.000000 0.000002 -5.933993 17.053406 19.487793 4.806241 7.686236 0.201065 30.075311 29.279061 -30.946672 -4.584120 0.000017 0.000016 0.000000 0.000004 -0.000000 -5.738409 -16.768536 -12.357929 4.136614 -7.531761 -7.776626 38.399586 -29.811798 30.088643 -8.737378 -0.000003 -0.000008 0.000001 0.000002 -0.000000 
